name C:\Users\Nicos\Desktop\Gil_twoSteps\Study2\ExperimentalData\IK_Splined\twoSteps_IK_BSplines_180_meshInts_study2_p02_s_01_lowIK_modROI.mot
datacolumns 38
datarows 8
range 0.32800000 0.33284444
endheader
                time	         pelvis_tilt	         pelvis_list	     pelvis_rotation	           pelvis_tx	           pelvis_ty	           pelvis_tz	       hip_flexion_r	     hip_adduction_r	      hip_rotation_r	        knee_angle_r	       ankle_angle_r	    subtalar_angle_r	         mtp_angle_r	       hip_flexion_l	     hip_adduction_l	      hip_rotation_l	        knee_angle_l	       ankle_angle_l	    subtalar_angle_l	         mtp_angle_l	    lumbar_extension	      lumbar_bending	     lumbar_rotation	          arm_flex_r	           arm_add_r	           arm_rot_r	        elbow_flex_r	           pro_sup_r	        wrist_flex_r	         wrist_dev_r	          arm_flex_l	           arm_add_l	           arm_rot_l	        elbow_flex_l	           pro_sup_l	        wrist_flex_l	         wrist_dev_l	
          0.32800000	        -23.90389477	         -6.37834861	          9.46790079	         -1.36070113	          0.83287187	          0.29608043	         79.49418881	         -5.90563326	         -3.03589877	        -86.15254500	          5.84132495	        -23.61940215	          0.17691142	         -5.33406020	         -4.89961664	         10.00332575	        -37.52494353	        -33.62554658	          6.85766795	          6.81108040	        -21.33320043	         17.03248048	         -0.33152120	        -65.85712768	          7.89210539	        -31.54261643	         65.10481680	         72.01277888	         -3.60717571	          8.11919869	         31.24073215	         -6.62981166	         22.80143507	        139.51693986	         49.05179630	         -6.15730335	          5.23672284	
          0.32837557	        -23.85138342	         -6.31624880	          9.43260558	         -1.35882765	          0.83312675	          0.29609090	         79.22353323	         -5.89970198	         -3.00576462	        -86.00854163	          5.79229169	        -23.57074849	          0.21743942	         -5.25101929	         -4.81334422	          9.85253198	        -37.79964506	        -33.63362618	          7.02399571	          6.90380913	        -21.43436851	         16.98485975	         -0.37868486	        -65.63751223	          7.74110309	        -31.46694413	         65.17764151	         72.00637348	         -3.59647230	          8.13384365	         30.83469657	         -6.70556175	         22.60641775	        139.31759849	         49.05243671	         -6.19972617	          5.26045383	
          0.32956221	        -23.68540661	         -6.12182116	          9.32167484	         -1.35290813	          0.83392958	          0.29612537	         78.36610576	         -5.88162507	         -2.91326015	        -85.55100204	          5.64343140	        -23.41456728	          0.34918551	         -4.98663285	         -4.54454235	          9.37360216	        -38.67055813	        -33.65707102	          7.52090791	          7.19163349	        -21.75339101	         16.83545871	         -0.52871295	        -64.94237720	          7.26330899	        -31.22380603	         65.40863964	         71.98692721	         -3.56265965	          8.18011191	         29.55211666	         -6.94207807	         21.98458579	        138.68041300	         49.05184809	         -6.33375845	          5.33591097	
          0.33042222	        -23.56511577	         -5.98091072	          9.24127835	         -1.34861798	          0.83451142	          0.29615036	         77.74468960	         -5.86852392	         -2.84621800	        -85.21940257	          5.53554567	        -23.30137575	          0.44466781	         -4.79502013	         -4.34972958	          9.02650024	        -39.30174791	        -33.67406255	          7.88104247	          7.40023272	        -21.98460093	         16.72718108	         -0.63744503	        -64.43858166	          6.91703017	        -31.04759294	         65.57605436	         71.97283362	         -3.53815411	          8.21364459	         28.62257345	         -7.11349206	         21.53391626	        138.21861609	         49.05142149	         -6.43089767	          5.39059814	
          0.33042222	        -23.56511577	         -5.98091072	          9.24127835	         -1.34861798	          0.83451142	          0.29615036	         77.74468960	         -5.86852392	         -2.84621800	        -85.21940257	          5.53554567	        -23.30137575	          0.44466781	         -4.79502013	         -4.34972958	          9.02650024	        -39.30174791	        -33.67406255	          7.88104247	          7.40023272	        -21.98460093	         16.72718108	         -0.63744503	        -64.43858166	          6.91703017	        -31.04759294	         65.57605436	         71.97283362	         -3.53815411	          8.21364459	         28.62257345	         -7.11349206	         21.53391626	        138.21861609	         49.05142149	         -6.43089767	          5.39059814	
          0.33079779	        -23.51260510	         -5.92015203	          9.20648796	         -1.34674457	          0.83476413	          0.29616236	         77.47232390	         -5.86302488	         -2.81809233	        -85.07362905	          5.49231273	        -23.25075136	          0.48796195	         -4.71041296	         -4.26637774	          8.87406367	        -39.57867530	        -33.68009743	          8.02557881	          7.48859781	        -22.08515083	         16.68025008	         -0.68529295	        -64.21786930	          6.76576335	        -30.96898929	         65.64931374	         71.96704739	         -3.52748512	          8.22824980	         28.21735540	         -7.18713430	         21.33507056	        138.01321256	         49.05001906	         -6.47321809	          5.41464875	
          0.33198443	        -23.34681304	         -5.73275607	          9.09844235	         -1.34082588	          0.83555447	          0.29620676	         76.60591142	         -5.84695920	         -2.73601030	        -84.60736725	          5.37857319	        -23.08376849	          0.63416016	         -4.43761227	         -4.01316903	          8.38737896	        -40.46122986	        -33.69100531	          8.40724484	          7.75171319	        -22.40037573	         16.53405194	         -0.83862009	        -63.51635870	          6.28754729	        -30.71090745	         65.88166263	         71.95093554	         -3.49396740	          8.27416938	         26.94123809	         -7.41266094	         20.69479504	        137.34221247	         49.03842472	         -6.60634231	          5.49163248	
          0.33284444	        -23.22665610	         -5.59694181	          9.02013686	         -1.33653634	          0.83612726	          0.29623894	         75.97798341	         -5.83531568	         -2.67652177	        -84.26944640	          5.29614104	        -22.96274851	          0.74011656	         -4.23990137	         -3.82965732	          8.03465670	        -41.10085674	        -33.69891073	          8.68385534	          7.94240471	        -22.62883336	         16.42809559	         -0.94974314	        -63.00794249	          5.94096265	        -30.52386397	         66.05005629	         71.93925855	         -3.46967560	          8.30744935	         26.01637861	         -7.57611021	         20.23075864	        136.85590859	         49.03002178	         -6.70282341	          5.54742604	
